<svg viewBox="0 0 900 575" xmlns="http://www.w3.org/2000/svg" fill-rule="evenodd" clip-rule="evenodd" stroke-linejoin="round" stroke-miterlimit="1.414"><g fill-rule="nonzero"><path fill="#fff" d="M0 3.292h900V575H0z"/><path fill="#fcb315" d="M14.988 482.105h870.009v78H14.987z"/><path fill="#0d357f" d="M14.988 18.288h870.009v78H14.987zm427.5 163.937l-45.859 214.396h-55.466l45.862-214.396h55.463zm233.35 138.438l29.2-80.513 16.796 80.513h-45.996zm61.917 75.958h51.283L744.23 182.225h-47.31c-10.666 0-19.65 6.183-23.629 15.717l-83.229 198.68h58.254L659.88 364.6h71.15l6.725 32.021zm-144.8-69.996c.241-56.579-78.217-59.716-77.696-84.996.17-7.683 7.496-15.866 23.52-17.958 7.942-1.025 29.859-1.85 54.705 9.596l9.716-45.484c-13.35-4.825-30.52-9.475-51.883-9.475-54.833 0-93.408 29.125-93.717 70.867-.35 30.867 27.559 48.075 48.538 58.354 21.63 10.509 28.88 17.25 28.775 26.638-.15 14.383-17.254 20.75-33.17 20.992-27.905.433-44.076-7.542-56.968-13.55l-10.066 47c12.979 5.941 36.9 11.112 61.662 11.379 58.292 0 96.413-28.788 96.584-73.363zm-229.721-144.4l-89.871 214.396h-58.625l-44.23-171.104c-2.679-10.521-5.016-14.388-13.17-18.834-13.338-7.245-35.359-14.02-54.717-18.237l1.308-6.22h94.384c12.02 0 22.837 8 25.587 21.845l23.363 124.07 57.7-145.916h58.27z"/></g></svg>